<?xml version="1.0" standalone="no"?>
<!DOCTYPE svg PUBLIC "-//W3C//DTD SVG 20010904//EN"
 "http://www.w3.org/TR/2001/REC-SVG-20010904/DTD/svg10.dtd">
<svg version="1.0" xmlns="http://www.w3.org/2000/svg"
 width="249.000000pt" height="249.000000pt" viewBox="0 0 249.000000 249.000000"
 preserveAspectRatio="xMidYMid meet">

<g transform="translate(0.000000,249.000000) scale(0.100000,-0.100000)"
fill="#C60079" stroke="none">
<path d="M1120 2475 c-291 -38 -519 -144 -726 -338 -281 -265 -422 -645 -379
-1018 19 -163 52 -277 120 -415 122 -246 311 -436 560 -562 476 -240 1074
-136 1441 250 197 208 297 421 340 729 13 95 14 130 4 214 -38 327 -147 561
-360 776 -166 167 -348 273 -568 330 -71 18 -288 50 -322 48 -8 -1 -58 -7
-110 -14z m-182 -855 c40 -25 72 -75 72 -116 0 -16 6 -39 14 -49 30 -42 3
-105 -82 -191 -37 -39 -48 -44 -87 -44 -39 0 -50 5 -87 43 -92 93 -116 149
-83 193 8 10 15 33 15 49 0 40 32 91 72 115 44 27 122 27 166 0z m409 -9 c41
-30 73 -89 73 -137 0 -13 7 -36 16 -49 21 -33 13 -77 -23 -121 -16 -18 -39
-47 -52 -65 -69 -90 -163 -90 -232 0 -13 18 -36 47 -52 65 -36 44 -44 88 -23
121 9 13 16 38 16 55 0 45 35 106 77 135 30 20 50 25 99 25 51 0 67 -5 101
-29z m403 7 c18 -13 47 -40 63 -60 32 -39 35 -61 26 -188 -1 -25 -1 -51 2 -59
3 -10 -15 -23 -56 -39 -82 -34 -170 -35 -247 -4 l-57 24 1 46 c1 26 -2 66 -7
88 -13 72 28 152 100 195 44 28 132 26 175 -3z m-942 -409 l44 -22 50 21 50
21 54 -20 c30 -11 54 -26 54 -32 0 -7 -25 -23 -56 -36 -70 -30 -100 -69 -116
-152 l-13 -64 -142 -3 c-137 -2 -142 -2 -169 21 -22 19 -28 33 -27 60 1 49 30
131 52 151 15 14 152 74 170 76 3 0 25 -10 49 -21z m782 -18 c0 -17 -4 -32 -8
-35 -5 -3 9 -26 32 -51 l41 -46 38 41 c21 22 42 40 46 40 5 0 4 16 -2 35 -6
19 -7 38 -4 42 4 3 35 -2 69 -13 102 -30 148 -83 148 -169 0 -97 -32 -115
-205 -115 -141 0 -130 -7 -155 92 -18 71 -43 103 -94 124 -27 11 -45 25 -44
32 2 8 26 22 53 32 75 26 85 25 85 -9z m-395 -33 l45 -22 55 23 55 23 63 -22
c101 -36 139 -67 161 -130 27 -81 27 -137 -3 -161 -22 -18 -43 -19 -325 -19
-335 0 -340 1 -352 64 -7 42 17 132 47 170 23 29 59 50 134 77 64 23 66 23
120 -3z"/>
</g>
</svg>
