<?xml version="1.0" standalone="no"?>
<!DOCTYPE svg PUBLIC "-//W3C//DTD SVG 20010904//EN"
 "http://www.w3.org/TR/2001/REC-SVG-20010904/DTD/svg10.dtd">
<svg version="1.0" xmlns="http://www.w3.org/2000/svg"
 width="152.000000pt" height="152.000000pt" viewBox="0 0 152.000000 152.000000"
 preserveAspectRatio="xMidYMid meet">

<g transform="translate(0.000000,152.000000) scale(0.100000,-0.100000)"
fill="#C60079" stroke="none">
<path d="M680 1510 c-392 -54 -670 -363 -673 -745 0 -124 21 -222 74 -331 75
-155 195 -273 354 -349 211 -101 438 -101 650 0 498 237 578 915 147 1261
-145 117 -383 188 -552 164z m-95 -534 c23 -23 45 -82 45 -121 0 -23 -68 -103
-90 -106 -45 -5 -61 4 -95 48 -24 31 -35 55 -31 68 2 11 9 38 15 60 13 51 42
75 93 75 28 0 46 -7 63 -24z m246 -5 c19 -20 29 -40 29 -60 0 -17 5 -31 10
-31 6 0 10 -15 10 -32 0 -24 -11 -46 -41 -80 -35 -42 -46 -48 -79 -48 -33 0
-44 6 -79 48 -39 45 -54 96 -34 116 4 4 9 19 10 34 2 15 17 39 33 55 43 39
101 38 141 -2z m245 13 c38 -26 49 -53 49 -126 l0 -67 -40 -16 c-52 -19 -106
-19 -147 1 -31 15 -33 18 -35 76 -4 96 35 148 110 148 21 0 49 -7 63 -16z
m-580 -246 c25 -9 39 -9 58 0 19 8 34 8 58 0 43 -14 45 -17 28 -29 -11 -8 -8
-8 10 -3 14 5 35 7 48 6 12 -2 40 -3 62 -3 22 0 50 1 63 3 12 1 33 -2 46 -6
15 -5 21 -5 17 2 -3 6 8 15 26 21 45 16 61 14 56 -7 -3 -10 5 -31 18 -47 l23
-29 26 24 c14 13 25 34 25 47 0 27 16 29 64 9 44 -18 66 -51 66 -98 0 -55 -27
-70 -126 -66 l-77 3 -13 40 -12 40 5 -47 c9 -78 9 -78 -208 -78 -178 0 -189 1
-202 21 -16 22 -7 88 15 119 9 11 7 10 -7 -2 -10 -9 -21 -34 -24 -55 l-6 -38
-83 -3 c-95 -3 -122 7 -122 47 0 60 20 92 74 117 60 28 52 27 92 12z"/>
<path d="M595 690 c-3 -6 1 -7 9 -4 18 7 21 14 7 14 -6 0 -13 -4 -16 -10z"/>
<path d="M900 697 c0 -2 15 -14 33 -27 l32 -23 -24 26 c-21 23 -41 35 -41 24z"/>
</g>
</svg>
